<svg width="79" height="66" viewBox="0 0 79 66" fill="none" xmlns="http://www.w3.org/2000/svg">
<path d="M23.0711 53C26.6711 50.6 27.2378 42 27.0711 38C30.5711 40.6667 40.0711 44.4 50.0711 38C49.9044 42.3333 50.8711 51.4 56.0711 53C59.2378 54.5 66.3711 57.5 69.5711 57.5C72.2378 57.5 77.5711 59 77.5711 65H0.571091C1.37109 59 6.23776 57.5 8.57109 57.5C11.3711 57.5 19.4044 54.5 23.0711 53Z" fill="white" stroke="black"/>
<path d="M26.0711 50.5L37.5711 59H39.5711L51.0711 51L50.0711 53L41.0711 60V62L39.5711 65H37.5711L36.0711 62V60L27.5711 53L26.0711 50.5Z" fill="black"/>
<path d="M41.0711 60L50.0711 53L51.0711 51L39.5711 59H37.5711L26.0711 50.5L27.5711 53L36.0711 60M41.0711 60H36.0711M41.0711 60V62M36.0711 60V62M36.0711 62H41.0711M36.0711 62L37.5711 65H39.5711L41.0711 62" stroke="black"/>
<path d="M38.5711 57L26.0711 48.5L25.5711 49.5L33.5711 65H43.5711L52.0711 49.5L51.5711 48.5L38.5711 57Z" stroke="black"/>
<circle cx="38.5711" cy="21" r="20.5" fill="white" stroke="black"/>
</svg>
