<svg width="112" height="54" viewBox="0 0 112 54" fill="none" xmlns="http://www.w3.org/2000/svg">
<rect width="112" height="51" fill="#B51D1D"/>
<path d="M15 7C18.1304 17.6296 26.113 39.5111 33 42" stroke="white" stroke-width="7"/>
<path d="M49 8C45.1783 19.3333 36.4279 42 32 42" stroke="white" stroke-width="7"/>
<path d="M49 8C49.127 16.4341 50.9048 35.0419 57 42" stroke="white" stroke-width="7"/>
<path d="M16 8C15.1304 17.6202 11.913 37.8884 6 42" stroke="white" stroke-width="7"/>
<path d="M64.4688 32.2969L63.0781 32.1562C63.3802 30.6771 63.5729 29.3646 63.6562 28.2188C65.5521 27.3021 67.5312 26.8438 69.5938 26.8438C70.7917 26.8438 71.7448 27.0365 72.4531 27.4219C73.1719 27.8073 73.6667 28.3333 73.9375 29C74.2083 29.6667 74.3438 30.7031 74.3438 32.1094L74.2812 37.4219C74.2812 38.4323 74.3646 39.0729 74.5312 39.3438C74.7083 39.6042 74.9375 39.7344 75.2188 39.7344C75.5521 39.7344 76.0469 39.5521 76.7031 39.1875L77.2969 40.0938C75.8802 41.0938 74.8333 41.75 74.1562 42.0625C73.6667 42.2812 73.1979 42.3906 72.75 42.3906C72.1562 42.3906 71.6458 42.2292 71.2188 41.9062C70.7917 41.5833 70.5 41.1042 70.3438 40.4688C69.0938 41.3333 68.2188 41.8698 67.7188 42.0781C67.2188 42.2969 66.6146 42.4062 65.9062 42.4062C64.8333 42.4062 63.9531 42.0469 63.2656 41.3281C62.5885 40.599 62.25 39.6302 62.25 38.4219C62.25 37.5677 62.4792 36.776 62.9375 36.0469C63.25 35.5365 63.8281 35.0469 64.6719 34.5781L70.3438 31.8906C70.3229 30.651 70.125 29.8177 69.75 29.3906C69.3854 28.9635 68.8385 28.75 68.1094 28.75C67.3698 28.75 66.724 28.9948 66.1719 29.4844C65.6302 29.9635 65.0625 30.901 64.4688 32.2969ZM70.3438 33.5781C68.625 34.3802 67.5417 35.0365 67.0938 35.5469C66.6458 36.0573 66.4219 36.724 66.4219 37.5469C66.4219 38.3906 66.5885 39.0104 66.9219 39.4062C67.2552 39.8021 67.6875 40 68.2188 40C68.625 40 69.0156 39.8646 69.3906 39.5938C69.776 39.3229 70.0312 38.9427 70.1562 38.4531C70.2917 37.9531 70.3594 36.9115 70.3594 35.3281C70.3594 34.9635 70.3542 34.3802 70.3438 33.5781ZM85.3438 22.5469V21.4062C87.7292 20.8958 89.8021 20.1615 91.5625 19.2031L92.3125 19.75C92.1667 21.0729 92.0573 22.5938 91.9844 24.3125C91.9115 26.0312 91.875 27.9479 91.875 30.0625C91.875 33.8438 91.8854 36.5156 91.9062 38.0781C91.9167 38.8073 92.0104 39.2656 92.1875 39.4531C92.3646 39.6302 92.6823 39.7188 93.1406 39.7188C93.2448 39.7188 93.6302 39.7135 94.2969 39.7031V40.8125C93.0156 40.9896 91.9167 41.1979 91 41.4375C90.0938 41.6667 89.1146 41.9844 88.0625 42.3906L87.2969 42.0156C87.4115 41.3594 87.5 40.6823 87.5625 39.9844C86.375 40.974 85.3906 41.651 84.6094 42.0156C84.0573 42.276 83.4635 42.4062 82.8281 42.4062C81.599 42.4062 80.5625 41.8802 79.7188 40.8281C78.6146 39.4844 78.0625 37.7292 78.0625 35.5625C78.0625 34.5208 78.2083 33.4792 78.5 32.4375C78.8021 31.3958 79.276 30.474 79.9219 29.6719C80.5781 28.8698 81.4427 28.2031 82.5156 27.6719C83.599 27.1302 84.7031 26.8594 85.8281 26.8594C86.0781 26.8594 86.3594 26.8854 86.6719 26.9375C86.9844 26.9896 87.3281 27.0677 87.7031 27.1719C87.7344 26.026 87.75 25.2188 87.75 24.75C87.75 23.6458 87.6667 22.9792 87.5 22.75C87.3333 22.5104 87.0365 22.3906 86.6094 22.3906C86.3073 22.3906 85.8854 22.4427 85.3438 22.5469ZM87.7344 33.9844C87.7344 31.8594 87.5833 30.4896 87.2812 29.875C86.8854 29.0833 86.25 28.6875 85.375 28.6875C84.6354 28.6875 83.9688 29.0938 83.375 29.9062C82.7812 30.7083 82.4844 32.0885 82.4844 34.0469C82.4844 35.9635 82.8333 37.4115 83.5312 38.3906C84.0104 39.0573 84.625 39.3906 85.375 39.3906C86.2604 39.3906 86.9062 38.9375 87.3125 38.0312C87.5938 37.375 87.7344 36.026 87.7344 33.9844ZM94.6875 30.0312V28.9375C97.2708 28.375 99.3333 27.6667 100.875 26.8125L101.625 27.2344C101.448 28.3281 101.344 29.5312 101.312 30.8438C102.375 29.1771 103.156 28.151 103.656 27.7656C104.167 27.3802 104.766 27.1875 105.453 27.1875C105.922 27.1875 106.438 27.3125 107 27.5625C106.677 28.8646 106.427 30.2135 106.25 31.6094H105.188C105.135 31.1927 105 30.8854 104.781 30.6875C104.562 30.4896 104.302 30.3906 104 30.3906C103.542 30.3906 103.109 30.6042 102.703 31.0312C102.089 31.6875 101.661 32.4948 101.422 33.4531C101.297 33.9427 101.234 34.7865 101.234 35.9844C101.234 38.099 101.255 39.3177 101.297 39.6406C101.339 39.9635 101.453 40.2031 101.641 40.3594C101.828 40.5156 102.406 40.7031 103.375 40.9219C103.51 40.9531 103.714 41.0052 103.984 41.0781V42.1719C102.005 42.0573 100.406 42 99.1875 42C97.875 42 96.375 42.0573 94.6875 42.1719V41.0781C95.9375 40.8177 96.6458 40.526 96.8125 40.2031C97.0521 39.7552 97.1719 37.6146 97.1719 33.7812C97.1719 31.75 97.0938 30.599 96.9375 30.3281C96.7812 30.0469 96.5 29.9062 96.0938 29.9062C95.7812 29.9062 95.3125 29.9479 94.6875 30.0312Z" fill="white"/>
</svg>
