<svg width="68" height="96" viewBox="0 0 68 96" fill="none" xmlns="http://www.w3.org/2000/svg">
<circle cx="33.7084" cy="78.0918" r="16.8848" fill="white" stroke="black"/>
<path d="M37.3375 89.1451H34.525V71.2232C33.848 71.869 32.9573 72.5149 31.8532 73.1607C30.7594 73.8065 29.775 74.2909 28.9 74.6138V71.8951C30.473 71.1555 31.848 70.2597 33.025 69.2076C34.2021 68.1555 35.0355 67.1347 35.525 66.1451H37.3375V89.1451Z" fill="black"/>
<path d="M20.0489 67.9159C3.0781 43.9083 -18.4459 -3.11327 31.2249 0.860385C86.8561 -4.10669 65.1665 43.4944 47.3678 67.9159L42.4008 62.9488C58.1298 42.2527 77.9153 0.860385 31.2249 0.860385C14.6679 1.27431 -9.50515 14.2715 26.2578 62.9488L20.0489 67.9159Z" fill="white"/>
<path d="M31.2249 0.860385C-18.4459 -3.11327 3.0781 43.9083 20.0489 67.9159L26.2578 62.9488C-9.50515 14.2715 14.6679 1.27431 31.2249 0.860385ZM31.2249 0.860385C86.8561 -4.10669 65.1665 43.4944 47.3678 67.9159L42.4008 62.9488C58.1298 42.2527 77.9153 0.860385 31.2249 0.860385Z" stroke="black"/>
</svg>
